# xmcd
#
# Track frame offsets: 
#        150
#        6688
#        24072
#        48438
#        66581
#        86392
#        96837
#        115148
#        131765
#        157241
#
# Disc length: 2372 seconds
#
# Revision: 1
# Processed by: cddbd v1.5.2PL0 Copyright (c) Steve Scherf et al.
# Submitted via: ExactAudioCopy v0.99pb4
#
DISCID=8509420a
DTITLE=Lali Puna - I Thought I Was Over That: Rare, Remixed and B-Side
DTITLE=s [CD1)
DYEAR=2005
DGENRE=Electronic
TTITLE0=The Failure Of The Leading Sign Industry
TTITLE1=40 Days
TTITLE2=Clear Cut (Lali Puna - Bomb the Bass)
TTITLE3=Awaiting An Accident (Remix For Boom Bip)
TTITLE4=It's Not the Worst I've Looked (Remix For Two Lone Swordsmen)
TTITLE5=Harrison Reverse
TTITLE6=The Daily Match
TTITLE7=(This Is) The Dream Of Evan And Chan (Remix For Dntel)
TTITLE8=Past Machine
TTITLE9=Together In Electric Dreams
EXTD=
EXTT0=
EXTT1=
EXTT2=
EXTT3=
EXTT4=
EXTT5=
EXTT6=
EXTT7=
EXTT8=
EXTT9=
PLAYORDER=
